<svg xmlns="http://www.w3.org/2000/svg" viewBox="0 0 32 32" width="32" height="32">
  <!-- Background circle -->
  <circle cx="16" cy="16" r="15" fill="url(#gradient)" stroke="#667eea" stroke-width="2"/>
  
  <!-- Phone icon -->
  <path d="M12 8c-1.1 0-2 .9-2 2v12c0 1.1.9 2 2 2h8c1.1 0 2-.9 2-2V10c0-1.1-.9-2-2-2h-8zm4 16c-.6 0-1-.4-1-1s.4-1 1-1 1 .4 1 1-.4 1-1 1z" fill="white"/>
  
  <!-- Call lines -->
  <path d="M14 12h4v2h-4z" fill="white"/>
  <path d="M14 15h4v2h-4z" fill="white"/>
  <path d="M14 18h4v2h-4z" fill="white"/>
  
  <!-- Gradient definition -->
  <defs>
    <linearGradient id="gradient" x1="0%" y1="0%" x2="100%" y2="100%">
      <stop offset="0%" style="stop-color:#667eea;stop-opacity:1" />
      <stop offset="100%" style="stop-color:#764ba2;stop-opacity:1" />
    </linearGradient>
  </defs>
</svg>
